<svg width="15" height="17" viewBox="0 0 15 17" fill="none" xmlns="http://www.w3.org/2000/svg">
<path d="M1 13.2708L1.00198 10.1212C1.00198 10.0162 1.04368 9.91552 1.11792 9.84129C1.19215 9.76706 1.29283 9.72535 1.39781 9.72535H5.35694C5.7219 9.72535 5.71992 9.40156 5.71992 8.63127C5.71992 7.86098 3.77954 7.21221 3.77954 4.50431C3.77954 1.79642 5.78958 1 7.46 1C9.13042 1 10.9501 1.79642 10.9501 4.50431C10.9501 7.21221 9.01998 7.64287 9.01998 8.63127C9.01998 9.61967 9.01998 9.72535 9.32873 9.72535H13.2712C13.3762 9.72535 13.4769 9.76706 13.5511 9.84129C13.6254 9.91552 13.6671 10.0162 13.6671 10.1212V13.2708H1Z" stroke="#EBEBEB" stroke-width="1.58333" stroke-linejoin="round"/>
<path d="M1 15.6445H13.6667" stroke="#EBEBEB" stroke-width="1.58333" stroke-linecap="round" stroke-linejoin="round"/>
</svg>
