<svg width="19" height="15" viewBox="0 0 19 15" fill="none" xmlns="http://www.w3.org/2000/svg">
<path d="M3.61262 7.45633L4.92777 12.0369C5.66205 13.4896 6.58384 13.8691 8.87454 14C10.6958 13.9555 11.7527 13.7409 12.6548 12.9582C13.2698 12.4243 13.5477 11.6194 13.6828 10.8185L14.1338 8.1107M17.4224 5.49324V12.0369M1.08852 4.75118C3.16943 3.02758 5.02349 2.10231 8.8693 1.08411C9.30316 0.969784 9.75961 0.972042 10.1923 1.09066C13.5962 2.02509 15.4346 2.85483 17.897 4.70014C18.0019 4.77867 18.0334 4.92525 17.96 5.03387C17.1562 6.21435 15.3611 7.17103 10.9581 8.875C10.041 9.22722 9.02456 9.22161 8.11141 8.8593C3.42249 7.0009 1.26685 6.00626 1.0046 4.97367C0.99608 4.93246 0.99944 4.88968 1.01429 4.8503C1.02915 4.81092 1.05489 4.77655 1.08852 4.75118Z" stroke="#F1F1F1" stroke-width="1.85113" stroke-linecap="round" stroke-linejoin="round"/>
</svg>
