<svg width="60" height="60" viewBox="0 0 60 60" fill="none" xmlns="http://www.w3.org/2000/svg">
<path opacity="0.21" fill-rule="evenodd" clip-rule="evenodd" d="M0 30V51C0 55.9706 4.02944 60 9 60H30H51C55.9706 60 60 55.9706 60 51V30V9C60 4.02944 55.9706 0 51 0H30H9C4.02944 0 0 4.02944 0 9V30Z" fill="#FD4040"/>
<path fill-rule="evenodd" clip-rule="evenodd" d="M30.3925 33.1417L37.6365 41.0809C38.0209 41.5022 38.5423 41.7388 39.0859 41.7388C39.6295 41.7388 40.1508 41.5022 40.5352 41.0809C40.9196 40.6596 41.1356 40.0882 41.1356 39.4925C41.1356 38.8967 40.9196 38.3253 40.5352 37.904L33.2885 29.9649L40.5339 22.0257C40.7241 21.8171 40.875 21.5695 40.9779 21.297C41.0808 21.0245 41.1338 20.7325 41.1337 20.4375C41.1337 20.1426 41.0806 19.8506 40.9776 19.5781C40.8745 19.3057 40.7235 19.0581 40.5332 18.8496C40.3429 18.6411 40.1169 18.4758 39.8683 18.363C39.6196 18.2502 39.3531 18.1921 39.084 18.1922C38.8149 18.1923 38.5485 18.2504 38.2999 18.3634C38.0513 18.4763 37.8254 18.6418 37.6352 18.8504L30.3925 26.7895L23.1485 18.8504C22.9596 18.6358 22.7336 18.4646 22.4836 18.3468C22.2337 18.229 21.9649 18.1669 21.6928 18.1642C21.4207 18.1614 21.1509 18.2181 20.899 18.3309C20.6472 18.4437 20.4183 18.6103 20.2258 18.8211C20.0334 19.0318 19.8811 19.2825 19.778 19.5584C19.6748 19.8343 19.6228 20.13 19.6251 20.4282C19.6273 20.7263 19.6837 21.021 19.791 21.2951C19.8982 21.5691 20.0542 21.817 20.2498 22.0242L27.4966 29.9649L20.2512 37.9055C20.0556 38.1128 19.8996 38.3607 19.7923 38.6347C19.6851 38.9087 19.6287 39.2034 19.6264 39.5016C19.6242 39.7998 19.6762 40.0955 19.7793 40.3714C19.8825 40.6473 20.0347 40.898 20.2272 41.1087C20.4197 41.3195 20.6485 41.4861 20.9004 41.5989C21.1523 41.7117 21.4221 41.7683 21.6942 41.7656C21.9662 41.7629 22.2351 41.7008 22.485 41.583C22.7349 41.4652 22.961 41.294 23.1499 41.0794L30.3925 33.1417Z" fill="#FF0000"/>
</svg>
