<svg width="60" height="60" viewBox="0 0 60 60" fill="none" xmlns="http://www.w3.org/2000/svg">
<path fill-rule="evenodd" clip-rule="evenodd" d="M31.3009 37.3719C29.7571 37.6441 28.1669 37.426 26.7534 36.7482C25.34 36.0705 24.1742 34.9671 23.4199 33.5929C23.2264 33.2482 22.9046 32.9938 22.5246 32.8851C22.1446 32.7763 21.7369 32.822 21.3904 33.0121C21.0438 33.2023 20.7863 33.5216 20.6739 33.9005C20.5614 34.2795 20.6031 34.6875 20.7899 35.0359C22.8919 38.8709 27.2699 41.1289 31.8219 40.3259C37.5319 39.3199 41.3459 33.8739 40.3389 28.1629C39.3309 22.4519 33.8859 18.6379 28.1749 19.6459C25.9122 20.0448 23.8428 21.1745 22.2837 22.8621C20.7245 24.5496 19.7618 26.7018 19.5429 28.9889C19.4189 30.2979 20.8089 31.1479 21.9109 30.5379L24.7309 28.9759C26.2779 28.1199 25.4979 25.7569 23.7449 25.9899L23.6429 26.0039C24.3064 24.945 25.2239 24.0686 26.3121 23.4544C27.4004 22.8401 28.6249 22.5076 29.8743 22.4869C31.1238 22.4662 32.3586 22.758 33.4666 23.3359C34.5746 23.9137 35.5206 24.7592 36.2188 25.7956C36.917 26.832 37.3451 28.0264 37.4643 29.2703C37.5835 30.5143 37.3901 31.7683 36.9015 32.9184C36.4128 34.0685 35.6446 35.0784 34.6665 35.8561C33.6884 36.6339 32.5315 37.1549 31.3009 37.3719Z" fill="#FFC700"/>
<path opacity="0.21" d="M0 9C0 4.02944 4.02944 0 9 0H51C55.9706 0 60 4.02944 60 9V51C60 55.9706 55.9706 60 51 60H9C4.02944 60 0 55.9706 0 51V9Z" fill="#FFC700"/>
</svg>
