<svg width="60" height="60" viewBox="0 0 60 60" fill="none" xmlns="http://www.w3.org/2000/svg">
<path opacity="0.21" d="M0 9C0 4.02944 4.02944 0 9 0H51C55.9706 0 60 4.02944 60 9V51C60 55.9706 55.9706 60 51 60H9C4.02944 60 0 55.9706 0 51V9Z" fill="#74E96A"/>
<path fill-rule="evenodd" clip-rule="evenodd" d="M42.6323 20.8C43.006 21.1743 43.216 21.6819 43.216 22.2112C43.216 22.7405 43.006 23.2482 42.6323 23.6225L27.6892 38.5842C27.4917 38.782 27.2573 38.9389 26.9992 39.0459C26.7412 39.1529 26.4646 39.208 26.1853 39.208C25.906 39.208 25.6294 39.1529 25.3714 39.0459C25.1134 38.9389 24.8789 38.782 24.6814 38.5842L17.2571 31.1519C17.0667 30.9678 16.9148 30.7475 16.8103 30.504C16.7058 30.2605 16.6508 29.9985 16.6485 29.7335C16.6462 29.4684 16.6967 29.2056 16.7969 28.9603C16.8971 28.7149 17.0452 28.4921 17.2324 28.3046C17.4196 28.1172 17.6421 27.969 17.8872 27.8686C18.1322 27.7683 18.3947 27.7178 18.6594 27.7201C18.9241 27.7224 19.1857 27.7774 19.429 27.8821C19.6722 27.9867 19.8922 28.1387 20.0761 28.3294L26.1846 34.4456L39.8119 20.8C39.997 20.6145 40.2169 20.4673 40.4588 20.3669C40.7008 20.2665 40.9602 20.2148 41.2221 20.2148C41.484 20.2148 41.7433 20.2665 41.9853 20.3669C42.2273 20.4673 42.4471 20.6145 42.6323 20.8Z" fill="#00950F"/>
</svg>
