<svg width="62" height="60" viewBox="0 0 62 60" fill="none" xmlns="http://www.w3.org/2000/svg">
<path opacity="0.21" d="M0.625 9C0.625 4.02944 4.65444 0 9.625 0H52.7528C57.7234 0 61.7528 4.02944 61.7528 9V51C61.7528 55.9706 57.7234 60 52.7528 60H9.625C4.65444 60 0.625 55.9706 0.625 51V9Z" fill="#5F01B3"/>
<path opacity="0.587821" fill-rule="evenodd" clip-rule="evenodd" d="M21.6836 23.3333C21.6836 26.2789 24.1163 28.6667 27.1172 28.6667C30.1181 28.6667 32.5508 26.2789 32.5508 23.3333C32.5508 20.3878 30.1181 18 27.1172 18C24.1163 18 21.6836 20.3878 21.6836 23.3333ZM35.2662 28.667C35.2662 30.8761 37.0908 32.667 39.3414 32.667C41.5921 32.667 43.4166 30.8761 43.4166 28.667C43.4166 26.4579 41.5921 24.667 39.3414 24.667C37.0908 24.667 35.2662 26.4579 35.2662 28.667Z" fill="#5F01B3"/>
<path fill-rule="evenodd" clip-rule="evenodd" d="M27.0936 31.332C20.68 31.332 15.418 34.5674 14.8915 40.931C14.8628 41.2776 15.5382 41.9987 15.8789 41.9987H38.3185C39.3389 41.9987 39.3548 41.1927 39.3389 40.932C38.9409 34.3896 33.5974 31.332 27.0936 31.332ZM46.7545 41.999H41.5174C41.5173 38.9978 40.507 36.2281 38.802 33.9999C43.4291 34.0497 47.2072 36.3461 47.4915 41.199C47.5029 41.3945 47.4915 41.999 46.7545 41.999Z" fill="#5F01B3"/>
</svg>
