<svg width="14" height="14" viewBox="0 0 14 14" fill="none" xmlns="http://www.w3.org/2000/svg">
<path fill-rule="evenodd" clip-rule="evenodd" d="M7 0C10.8661 0 14 3.1339 14 6.99999C14.0025 8.61552 13.4438 10.1817 12.4194 11.431L12.4334 11.4464L12.341 11.5248C11.6846 12.3012 10.8665 12.925 9.944 13.3525C9.02149 13.7801 8.01676 14.001 7 14C4.935 14 3.08 13.1061 1.79901 11.6851L1.65901 11.5241L1.56661 11.4471L1.58061 11.4303C0.556337 10.1813 -0.00235719 8.61529 7.47559e-06 6.99999C7.47559e-06 3.1339 3.1339 0 7 0ZM7 10.5C5.698 10.5 4.5213 10.9144 3.6449 11.4842C4.61259 12.2103 5.7902 12.6019 7 12.6C8.2098 12.6019 9.38741 12.2103 10.3551 11.4842C9.35366 10.8425 8.1894 10.5009 7 10.5ZM7 1.4C5.94617 1.39997 4.91371 1.6973 4.02131 2.25781C3.1289 2.81833 2.41277 3.61927 1.95522 4.56859C1.49767 5.51791 1.31727 6.57708 1.43476 7.62434C1.55225 8.6716 1.96287 9.66446 2.6194 10.4888C3.7541 9.67469 5.3025 9.09999 7 9.09999C8.6975 9.09999 10.2459 9.67469 11.3806 10.4888C12.0371 9.66446 12.4477 8.6716 12.5652 7.62434C12.6827 6.57708 12.5023 5.51791 12.0448 4.56859C11.5872 3.61927 10.8711 2.81833 9.97869 2.25781C9.08629 1.6973 8.05383 1.39997 7 1.4ZM7 2.8C7.7426 2.8 8.4548 3.095 8.9799 3.6201C9.505 4.1452 9.8 4.85739 9.8 5.59999C9.8 6.3426 9.505 7.05479 8.9799 7.57989C8.4548 8.10499 7.7426 8.39999 7 8.39999C6.25739 8.39999 5.5452 8.10499 5.0201 7.57989C4.495 7.05479 4.2 6.3426 4.2 5.59999C4.2 4.85739 4.495 4.1452 5.0201 3.6201C5.5452 3.095 6.25739 2.8 7 2.8ZM7 4.19999C6.6287 4.19999 6.2726 4.34749 6.01005 4.61005C5.7475 4.8726 5.6 5.22869 5.6 5.59999C5.6 5.9713 5.7475 6.32739 6.01005 6.58994C6.2726 6.85249 6.6287 6.99999 7 6.99999C7.3713 6.99999 7.7274 6.85249 7.98995 6.58994C8.2525 6.32739 8.4 5.9713 8.4 5.59999C8.4 5.22869 8.2525 4.8726 7.98995 4.61005C7.7274 4.34749 7.3713 4.19999 7 4.19999Z" fill="#EBEBEB"/>
</svg>
