<svg width="235" height="235" viewBox="0 0 235 235" fill="none" xmlns="http://www.w3.org/2000/svg">
<mask id="path-1-inside-1_1016_3524" fill="white">
<path d="M34.415 158.81C43.9889 178.064 59.9531 193.396 79.5789 202.184C99.2046 210.972 121.273 212.671 142.013 206.99L135.91 184.708C120.334 188.974 103.76 187.698 89.0205 181.098C74.2813 174.499 62.2919 162.984 55.1016 148.524L34.415 158.81Z"/>
</mask>
<path d="M34.415 158.81C43.9889 178.064 59.9531 193.396 79.5789 202.184C99.2046 210.972 121.273 212.671 142.013 206.99L135.91 184.708C120.334 188.974 103.76 187.698 89.0205 181.098C74.2813 174.499 62.2919 162.984 55.1016 148.524L34.415 158.81Z" stroke="black" stroke-width="46.3946" mask="url(#path-1-inside-1_1016_3524)"/>
<path d="M200.999 117.496C200.999 155.88 170.843 191.727 136.047 196.367" stroke="#F5F3F8" stroke-width="22.6802"/>
<path d="M134.5 186C146 184 172.1 177.8 188.5 131" stroke="black" stroke-width="2"/>
<path d="M136.5 207C158.5 204.5 206 184.5 211.5 122" stroke="black" stroke-width="2"/>
<rect x="39.7109" y="53.6445" width="23.2973" height="82.966" rx="11.6486" transform="rotate(-90 39.7109 53.6445)" fill="#7A00E6" stroke="black" stroke-width="2"/>
<rect x="116.027" y="99.2422" width="23.2973" height="44.648" rx="11.6486" transform="rotate(-90 116.027 99.2422)" fill="#7A00E6" stroke="black" stroke-width="2"/>
<rect x="0.196723" y="1.39976" width="23.3138" height="118.207" rx="11.6569" transform="matrix(0.798932 0.601422 -0.602208 0.798339 109.566 24.5077)" fill="#F5F3F8" stroke="#111111" stroke-width="2"/>
<rect x="0.196723" y="1.39976" width="23.3138" height="61.2666" rx="11.6569" transform="matrix(0.798932 0.601422 -0.602208 0.798339 147.55 70.1054)" fill="#F5F3F8" stroke="#111111" stroke-width="2"/>
<path d="M71 196.5C50.0043 188 8.99784 140.5 33.9943 82.5L54.9977 91C46.831 105.333 40.4977 143.4 82.4977 179" stroke="black" stroke-width="2"/>
<mask id="path-10-inside-2_1016_3524" fill="white">
<path d="M34.5008 83.502C26.3526 103.402 24.1594 124.472 30.5085 145.016C36.5074 163.016 51.1592 186.878 70.0148 196.017L82 179C68.5156 170.113 56.7682 153.43 52 138C47.2318 122.57 47.3805 106.445 53.5 91.5L34.5008 83.502Z"/>
</mask>
<path d="M34.5008 83.502C26.3526 103.402 24.1594 124.472 30.5085 145.016C36.5074 163.016 51.1592 186.878 70.0148 196.017L82 179C68.5156 170.113 56.7682 153.43 52 138C47.2318 122.57 47.3805 106.445 53.5 91.5L34.5008 83.502Z" fill="#D9D9D9"/>
<path d="M34.5008 83.502L43.5012 62.1219L21.9102 53.0328L13.0334 74.7119L34.5008 83.502ZM30.5085 145.016L8.34533 151.866L8.42063 152.109L8.50127 152.351L30.5085 145.016ZM70.0148 196.017L59.8968 216.892L77.6319 225.488L88.9805 209.375L70.0148 196.017ZM82 179L100.966 192.357L114.742 172.797L94.7653 159.631L82 179ZM53.5 91.5L74.9674 100.29L83.6716 79.0323L62.5003 70.1199L53.5 91.5ZM13.0334 74.7119C3.24134 98.6265 0.127498 125.274 8.34533 151.866L52.6716 138.167C48.1913 123.67 49.4639 108.177 55.9682 92.292L13.0334 74.7119ZM8.50127 152.351C12.2347 163.553 18.4705 176.136 26.6455 187.436C34.6863 198.551 45.7813 210.05 59.8968 216.892L80.1327 175.143C75.3926 172.845 69.7339 167.844 64.2352 160.243C58.8707 152.827 54.7811 144.479 52.5156 137.682L8.50127 152.351ZM88.9805 209.375L100.966 192.357L63.0343 165.643L51.0491 182.66L88.9805 209.375ZM94.7653 159.631C86.2361 154.01 77.5173 142.005 74.1631 131.151L29.8369 144.849C36.0192 164.854 50.7951 186.216 69.2347 198.369L94.7653 159.631ZM74.1631 131.151C70.8018 120.274 71.1051 109.723 74.9674 100.29L32.0326 82.7099C23.656 103.168 23.6617 124.867 29.8369 144.849L74.1631 131.151ZM62.5003 70.1199L43.5012 62.1219L25.5005 104.882L44.4997 112.88L62.5003 70.1199Z" fill="#7A00E6" mask="url(#path-10-inside-2_1016_3524)"/>
<path d="M50.2104 131.46C43.8068 131.45 38.6211 126.256 38.6211 119.852V119.852C38.6211 113.441 43.8182 108.244 50.2291 108.244H201.002C207.408 108.244 212.601 113.437 212.601 119.843V119.843V119.843C212.601 126.401 207.279 131.714 200.721 131.703L50.2104 131.46Z" fill="#111111"/>
<path d="M50 111.837H201C205.508 111.837 209.163 115.492 209.163 120C209.163 124.508 205.508 128.163 201 128.163H50C45.4919 128.163 41.8374 124.508 41.8374 120C41.8374 115.492 45.4919 111.837 50 111.837Z" fill="#111111" stroke="#F5F3F8" stroke-width="3.67471"/>
</svg>
