<svg width="138" height="151" viewBox="0 0 138 151" fill="none" xmlns="http://www.w3.org/2000/svg">
<path opacity="0.5" d="M72.552 92.6489H64.8945C64.8745 91.5479 64.8645 90.8772 64.8645 90.637C64.8645 88.1545 65.2749 86.1125 66.0957 84.511C66.9165 82.9094 68.5581 81.1077 71.0205 79.1057C73.4829 77.1038 74.9543 75.7925 75.4348 75.1719C76.1755 74.1909 76.5459 73.1099 76.5459 71.9287C76.5459 70.2871 75.8853 68.8857 74.564 67.7246C73.2627 66.5435 71.501 65.9529 69.2788 65.9529C67.1367 65.9529 65.345 66.5635 63.9036 67.7847C62.4622 69.0059 61.4712 70.8677 60.9307 73.3701L53.1831 72.4092C53.4033 68.8257 54.9248 65.7827 57.7476 63.2803C60.5903 60.7778 64.314 59.5266 68.9185 59.5266C73.7632 59.5266 77.6169 60.7979 80.4797 63.3403C83.3425 65.8628 84.7739 68.8057 84.7739 72.1689C84.7739 74.0308 84.2434 75.7925 83.1824 77.4541C82.1414 79.1157 79.8992 81.3779 76.4558 84.2407C74.6741 85.7222 73.563 86.9133 73.1226 87.8142C72.7021 88.7151 72.512 90.3267 72.552 92.6489ZM64.8945 104V95.5618H73.3328V104H64.8945Z" fill="#6000B6"/>
<rect opacity="0.75" x="8.5" y="21.5" width="122" height="122" rx="61" stroke="#6000B6" stroke-width="15"/>
</svg>
