<svg width="538" height="386" viewBox="0 0 538 386" fill="none" xmlns="http://www.w3.org/2000/svg">
<path d="M97.8637 351.664L99.5717 364.537C99.5717 364.537 131.593 378.177 128.623 378.374C125.653 378.572 79.6367 375.602 79.6367 375.602L82.3447 352.232L97.8637 351.664Z" fill="black"/>
<path d="M88.9437 141.509C88.9437 141.509 86.3917 166.069 84.4787 167.345C82.5647 168.621 80.0137 169.259 80.0137 169.259L84.1597 141.191L88.9437 141.509Z" stroke="white" stroke-miterlimit="10"/>
<path d="M38.3776 124.629C38.3776 124.629 25.3986 153.936 29.1666 170.264L101.113 159.29L99.6116 128.844L38.3776 124.629Z" fill="#141414"/>
<path d="M101.113 159.289C101.113 159.289 101.52 229.604 102.02 254.102C102.52 278.6 106.804 354.256 106.804 354.256C106.804 354.256 93.3691 361.663 79.3761 355.677C78.2571 355.198 66.2031 158.633 66.2031 158.633L101.113 159.289Z" fill="#141414"/>
<path d="M30.359 161.559L0 354.898C0 354.898 13.258 367.319 30.005 356.014L60.875 198.091L75.866 188.026L78.099 159.219L30.359 161.559Z" fill="#141414"/>
<path d="M22.3876 350.112L25.1516 361.218C25.1516 361.218 45.3526 385.514 42.3756 385.514C39.3986 385.514 6.22656 370.474 6.22656 370.474L10.4796 347.336L22.3876 350.112Z" fill="#141414"/>
<path d="M41.4477 136.492C41.4477 136.492 22.3158 216.93 8.09375 358.947" stroke="#141414" stroke-miterlimit="10"/>
<path d="M54.5668 145.145C54.5668 145.145 47.8678 161.892 36.4238 162.171" stroke="#141414" stroke-miterlimit="10"/>
<path d="M82.8622 356.837L73.0742 190.407L82.6362 180.379" stroke="#141414" stroke-miterlimit="10"/>
<path d="M82.7351 40.4258C87.7131 39.4068 91.3461 38.6758 91.3461 38.6758L122.394 55.6328C122.447 55.6618 122.5 55.6908 122.553 55.7198C132.727 61.3338 137.224 70.8588 136.956 84.2078L138.464 103.545L121.639 89.8918L107.416 117.319L98.3831 149.698C50.1791 167.227 31.4551 135.755 31.4551 135.755L47.4261 101.182L53.8771 69.2518C56.9421 52.8668 66.4071 43.7688 82.7351 40.4258Z" fill="#6000B6"/>
<path d="M329.24 136.003C335.508 136.003 341.578 133.803 346.391 129.787L359.746 118.643C364.552 114.633 370.26 112.484 376.109 112.484H442.387C448.401 112.484 453.277 117.36 453.277 123.374V136.002V363.318C453.277 373.696 444.864 382.11 434.485 382.11H104.093C96.0206 382.11 89.4766 375.566 89.4766 367.494V150.619C89.4766 142.547 96.0206 136.003 104.093 136.003H329.24Z" fill="#3D0073"/>
<path d="M89.4772 368.718C89.4772 368.718 111.962 326.541 114.211 321.697L175.662 196.505C177.207 193.178 180.541 191.05 184.209 191.05H412.567C420.869 191.05 432.876 186.698 439.25 181.379L448.465 173.69C453.271 169.68 458.98 167.531 464.828 167.531H527.902C534.616 167.531 539.176 174.351 536.611 180.556L460.34 365.025C456.065 375.365 445.979 382.109 434.79 382.109H93.6012C91.3772 382.109 89.3232 380.204 89.3242 377.98L89.4772 368.718Z" fill="#6000B6"/>
<path d="M182.361 202.957L92.1895 378.244" stroke="white" stroke-width="2" stroke-miterlimit="10" stroke-linejoin="round"/>
<path d="M219.517 233.163H297.192C299.31 233.163 301.281 232.097 302.418 230.337C305.042 226.276 302.08 220.961 297.192 220.961H219.517C217.399 220.961 215.428 222.027 214.291 223.786C211.666 227.848 214.629 233.163 219.517 233.163Z" stroke="white" stroke-width="2" stroke-miterlimit="10" stroke-linejoin="round"/>
<path d="M364.817 293.41L304.34 329.44" stroke="white" stroke-width="2" stroke-miterlimit="10" stroke-linecap="round" stroke-linejoin="round"/>
<path d="M315.371 291.672L353.372 329.656" stroke="white" stroke-width="2" stroke-miterlimit="10" stroke-linecap="round" stroke-linejoin="round"/>
<path d="M344.475 344.265C368.68 337.57 384.202 317.317 379.143 299.03C374.085 280.742 350.361 271.345 326.156 278.041C301.951 284.736 286.429 304.989 291.487 323.276C296.546 341.564 320.269 350.961 344.475 344.265Z" stroke="white" stroke-width="2" stroke-miterlimit="10" stroke-linecap="round" stroke-linejoin="round"/>
<path d="M104.907 122.172L116.122 134.766C116.122 134.766 105.601 147.18 94.9152 139.827L93.2012 137.368L104.907 122.172Z" fill="#6000B6"/>
<path d="M78.8477 47.0273C78.8477 47.0273 94.2137 51.0533 82.1237 95.4743" stroke="black" stroke-miterlimit="10" stroke-linecap="round"/>
<path d="M105.85 123.495C97.5538 114.174 87.4138 102.462 81.4238 94.3867" stroke="black" stroke-miterlimit="10" stroke-linecap="round"/>
<path d="M94.9159 139.825C86.9539 131.662 76.1949 120.043 71.4989 115.737C64.1809 109.026 56.5858 98.2284 59.0618 84.3564L58.7649 73.2344" stroke="black" stroke-miterlimit="10" stroke-linecap="round"/>
<path d="M142.808 134.325C133.003 129.027 128.486 122.468 124.705 117.606C115.685 106.009 112.489 104.573 115.132 91.0752L115.277 76.9492L134.846 98.1272C142.319 108.04 159.547 125.811 165.912 132.813C165.912 132.813 158.44 142.771 142.808 134.325Z" fill="#6000B6"/>
<path d="M102.897 130.751C103.799 130.504 104.734 130.428 105.664 130.526C109.02 130.881 118.013 131.825 119.028 131.838C120.278 131.854 121.294 129.988 123.976 136.753C126.658 143.517 126.177 144.147 126.161 145.031C126.146 145.915 124.2 158.904 122.11 156.953C120.02 155.002 120.301 153.866 120.301 153.866C120.301 153.866 119.174 159.141 118.581 158.938C117.988 158.734 115.791 158.728 116.143 155.003C116.143 155.003 114.945 158.624 113.71 157.723C112.475 156.823 112.752 152.909 112.752 152.909C112.752 152.909 111.43 155.847 109.92 153.886C108.411 151.924 109.535 147.381 109.535 147.381L108.27 144.005L105.533 142.822C105.533 142.822 96.3197 145.232 94.7347 138.837C93.5177 133.923 99.8837 131.575 102.897 130.751Z" fill="white"/>
<path d="M121.428 139.043L123.158 146.313L120.301 153.866" stroke="black" stroke-miterlimit="10" stroke-linecap="round"/>
<path d="M116.986 138.773L119.227 146.224L116.141 155.001" stroke="black" stroke-miterlimit="10" stroke-linecap="round"/>
<path d="M113.09 139.605L114.395 146.769L112.902 152.135" stroke="black" stroke-miterlimit="10" stroke-linecap="round"/>
<path d="M105.472 1.01953C102.203 4.07953 102.155 7.80053 102.155 7.80053C102.155 7.80053 101.031 6.41253 99.6406 5.96653" stroke="black" stroke-miterlimit="10" stroke-linecap="round"/>
<path d="M152.168 128.208C155.277 127.457 158.555 127.965 161.401 129.423C165.146 131.342 170.996 134.314 171.759 134.542C172.892 134.88 173.631 134.267 173.781 141.148C173.84 143.867 173.832 145.744 173.59 146.545C173.347 147.345 167.851 155.557 166.046 154.401C165.997 154.369 165.963 154.343 165.918 154.313C165.46 154.928 164.847 155.682 164.245 156.196C163.794 156.581 161.284 156.529 162.568 153.232C162.568 153.232 160.828 157.043 159.475 156.535C157.712 155.873 157.998 154.178 158.641 152.744C157.822 153.85 156.808 154.751 156.087 153.794C154.672 151.916 157.877 145.237 157.877 145.237L158.251 141.192L155.805 139.003C155.805 139.003 147.062 139.217 147.275 132.99C147.372 130.133 149.688 128.807 152.168 128.208Z" fill="white"/>
<path d="M171.356 138.629L171.245 146.007L165.863 153.838" stroke="black" stroke-miterlimit="10" stroke-linecap="round"/>
<path d="M167.534 138.688L167.113 146.292L162.568 153.232" stroke="black" stroke-miterlimit="10" stroke-linecap="round"/>
<path d="M163.654 138.887L163.109 145.291L159.23 151.725" stroke="black" stroke-miterlimit="10" stroke-linecap="round"/>
<path d="M152.591 137.176C152.591 137.176 153.469 143.777 151.338 145.226C149.208 146.675 145.772 133.024 148.135 132.85C151.598 132.594 152.591 137.176 152.591 137.176Z" fill="white"/>
<path d="M155.495 136.223C155.495 136.223 153.376 136.563 152.771 139.051" stroke="black" stroke-miterlimit="10" stroke-linecap="round"/>
<path d="M114.373 104.28L124.673 90.8565C134.089 78.3995 127.814 65.2305 127.814 65.2305" stroke="black" stroke-miterlimit="10" stroke-linecap="round"/>
<path d="M138.465 103.542C138.465 103.542 132.397 95.1295 131.018 98.8535" stroke="black" stroke-miterlimit="10" stroke-linecap="round"/>
<path d="M140.81 33.5282L139.062 33.1602" stroke="white" stroke-miterlimit="10"/>
<path d="M104.287 31.9023L91.3464 38.6743C91.3464 38.6743 91.0064 54.0323 105.539 65.7053L112.065 59.3643L118.642 65.9433C118.642 65.9433 121.144 63.9783 121.887 55.0613L120.714 44.2353L104.287 31.9023Z" fill="#3D0073"/>
<path d="M120.715 44.2353L104.287 31.9023L91.3457 38.6743" stroke="black" stroke-miterlimit="10" stroke-linecap="round" stroke-linejoin="round"/>
<path d="M100.531 34.2316C100.531 34.2316 104.532 57.6256 110.456 59.2836C116.379 60.9406 120.074 49.2426 120.074 49.2426L108.604 17.3086L100.531 34.2316Z" fill="white"/>
<path d="M122.273 52.0568L122.344 54.9648C122.398 54.9948 122.226 55.8628 119.342 56.1938C106.671 55.8158 105.668 41.5578 104.637 30.2148C104.637 30.2148 123.443 49.7928 122.273 52.0568Z" fill="black"/>
<path d="M140.006 20.252C140.006 20.252 143.261 49.904 125.867 54.722C108.473 59.54 104.306 31.175 104.906 21.365C105.506 11.555 110.404 6.71003 122.595 6.27103C140.63 5.62103 140.006 20.252 140.006 20.252Z" fill="white"/>
<path d="M113.965 12.215C113.965 12.215 113.639 18.447 109.503 19.692L106.529 28.857C106.529 28.857 104.037 24.784 101.299 23.341C101.299 23.341 98.2751 11.238 102.082 6.42897C105.889 1.61997 111.181 -0.818029 123.984 0.246971C133.729 1.05697 139.43 7.96997 141.292 11.487C141.896 12.627 143.361 15.831 139.936 18.948C139.936 18.948 139.982 16.59 137.982 13.831C137.982 13.831 133.316 23.37 113.965 12.215Z" fill="black"/>
<path d="M97.2901 30.427C98.3631 34.34 101.441 36.926 104.165 36.204C106.889 35.482 108.229 31.725 107.156 27.812C106.084 23.899 103.005 21.313 100.281 22.035C97.5561 22.758 96.2171 26.515 97.2901 30.427Z" fill="white"/>
<path d="M122.369 31.7357C122.319 32.7437 122.798 33.5867 123.439 33.6197C124.08 33.6527 124.639 32.8617 124.688 31.8537C124.738 30.8457 124.259 30.0027 123.618 29.9697C122.978 29.9377 122.418 30.7287 122.369 31.7357Z" fill="black"/>
<path d="M135.785 32.5636C135.686 33.5076 136.073 34.3236 136.649 34.3846C137.225 34.4456 137.773 33.7306 137.872 32.7856C137.971 31.8416 137.584 31.0256 137.008 30.9646C136.431 30.9036 135.884 31.6196 135.785 32.5636Z" fill="black"/>
<path d="M118.539 23.7531C118.539 23.7531 123.146 24.7401 123.453 20.3711" stroke="black" stroke-miterlimit="10" stroke-linecap="round"/>
<path d="M134.148 23.3945C134.148 23.3945 135.322 27.4555 138.785 25.1045" stroke="black" stroke-miterlimit="10" stroke-linecap="round"/>
<path d="M121.563 47.9808C121.563 47.9808 120.044 41.7918 115.33 45.3398L121.563 47.9808Z" fill="black"/>
<path d="M100.023 27.0201C100.023 27.0201 103.087 24.3841 104.761 29.2041C104.761 29.2041 102.971 31.1041 104.101 32.5951C104.101 32.5951 102.336 32.9951 101.466 31.4391" stroke="black" stroke-miterlimit="10" stroke-linecap="round" stroke-linejoin="round"/>
<path d="M101.35 28.8643C101.35 28.8643 101.521 27.7933 102.71 26.5703" stroke="black" stroke-miterlimit="10" stroke-linecap="round" stroke-linejoin="round"/>
<path d="M118.408 31.702C118.408 34.737 120.649 37.197 123.413 37.197C126.177 37.197 128.418 34.737 128.418 31.702C128.418 28.667 126.177 26.207 123.413 26.207C120.649 26.206 118.408 28.667 118.408 31.702Z" stroke="white" stroke-miterlimit="10"/>
<path d="M133.302 33.9119C133.302 33.9119 132.085 28.7469 128.137 33.5459" stroke="white" stroke-miterlimit="10"/>
<path d="M118.514 29.6239L106.883 27.0039" stroke="white" stroke-miterlimit="10"/>
<path d="M133.789 36.1953C134.365 36.9263 134.485 37.7973 134.194 38.7393C133.907 39.6693 132.959 40.2353 131.999 40.2153C131.554 40.2063 131.127 40.0863 130.706 39.9543C130.522 39.8973 130.158 39.7003 129.96 39.7873C129.001 40.2113 127.884 39.3743 128.204 38.7203" stroke="black" stroke-miterlimit="10" stroke-linecap="round"/>
</svg>
