<svg width="149" height="44" viewBox="0 0 149 44" fill="none" xmlns="http://www.w3.org/2000/svg">
<g clip-path="url(#clip0_684_3505)">
<g clip-path="url(#clip1_684_3505)">
<path d="M34.1964 19.2266C34.1964 28.3891 27.4703 33.8866 20.1328 33.8866" stroke="#F5F3F8" stroke-width="4.88855"/>
<path d="M20.1523 31.4639V36.3145C30.8338 36.085 36.9384 27.2603 36.6807 19.2891H31.7286C31.4084 29.0898 23.7238 31.4639 20.1523 31.4639Z" stroke="#111111" stroke-width="0.215318" stroke-linecap="round"/>
<rect x="0.0195312" y="5.45312" width="5.45263" height="18.3138" rx="2.72631" transform="rotate(-90 0.0195312 5.45312)" fill="#7A00E6"/>
<rect x="16.4688" y="15.2812" width="5.45263" height="10.0546" rx="2.72631" transform="rotate(-90 16.4688 15.2812)" fill="#7A00E6"/>
<rect x="0.021179" y="0.150697" width="5.24088" height="25.6943" rx="2.62044" transform="matrix(0.798932 0.601422 -0.602208 0.798339 15.1966 -1.06047)" fill="#F5F3F8" stroke="#111111" stroke-width="0.215318"/>
<rect x="0.021179" y="0.150697" width="5.24088" height="13.4213" rx="2.62044" transform="matrix(0.798932 0.601422 -0.602208 0.798339 23.3841 8.76765)" fill="#F5F3F8" stroke="#111111" stroke-width="0.215318"/>
<rect x="0.0195312" y="22.3398" width="5.457" height="36.8725" rx="2.7285" transform="rotate(-90 0.0195312 22.3398)" fill="#111111"/>
<path d="M2.76668 17.4781H34.1313C35.3198 17.4781 36.2832 18.4415 36.2832 19.63C36.2832 20.8184 35.3198 21.7819 34.1313 21.7819H2.76668C1.57822 21.7819 0.614778 20.8184 0.614778 19.63C0.614778 18.4415 1.57822 17.4781 2.76668 17.4781Z" fill="#111111" stroke="#F5F3F8" stroke-width="0.792056"/>
</g>
<g clip-path="url(#clip2_684_3505)">
<path d="M71.3354 9.35757H60.8846V17.7611H70.5165V21.6802H60.8846V33.3789H56.2441V5.41901H71.3354V9.35757ZM93.2315 33.3789H88.708V30.2203H88.63C87.3171 32.638 85.2764 33.8469 82.5077 33.8469C77.7892 33.8469 75.43 31.0132 75.43 25.3458V13.4131H79.9535V24.8778C79.9535 28.4655 81.3378 30.2593 84.1065 30.2593C85.4453 30.2593 86.5437 29.7653 87.4016 28.7774C88.2725 27.7895 88.708 26.4962 88.708 24.8973V13.4131H93.2315V33.3789ZM113.88 15.3044L103.097 29.8498H113.841V33.3789H96.7606V31.6826L107.777 16.9422H97.8135V13.4131H113.88V15.3044Z" fill="white"/>
<path d="M127.759 15.3044L116.976 29.8498H127.72V33.3789H110.64V31.6826L121.656 16.9422H111.693V13.4131H127.759V15.3044ZM148.875 13.4131L139.867 36.5766C137.995 40.7101 135.369 42.7769 131.99 42.7769C131.041 42.7769 130.248 42.6924 129.611 42.5234V38.7603C130.326 38.9943 130.976 39.1113 131.561 39.1113C133.251 39.1113 134.512 38.2794 135.343 36.6155L136.689 33.3399L128.753 13.4131H133.764L138.522 27.9195C138.574 28.1015 138.691 28.5824 138.873 29.3624H138.97C139.035 29.0634 139.152 28.5954 139.321 27.9585L144.312 13.4131H148.875Z" fill="white"/>
</g>
</g>
<defs>
<clipPath id="clip0_684_3505">
<rect width="149" height="43.2071" fill="white"/>
</clipPath>
<clipPath id="clip1_684_3505">
<rect width="36.8911" height="36.4605" fill="white"/>
</clipPath>
<clipPath id="clip2_684_3505">
<rect width="92.7303" height="37.7524" fill="white" transform="translate(56.2695 5.45703)"/>
</clipPath>
</defs>
</svg>
